<svg xmlns="http://www.w3.org/2000/svg" viewBox="0 0 512 512">
  <defs>
    <linearGradient id="bg" x1="0%" y1="0%" x2="100%" y2="100%">
      <stop offset="0%" stop-color="#4f46e5" />
      <stop offset="100%" stop-color="#7c3aed" />
    </linearGradient>
  </defs>
  <rect width="512" height="512" rx="116" fill="url(#bg)" />
  <rect x="104" y="96" width="304" height="320" rx="40" fill="#f8fafc" />
  <rect x="144" y="156" width="152" height="28" rx="14" fill="#cbd5e1" />
  <rect x="144" y="228" width="112" height="28" rx="14" fill="#cbd5e1" />
  <rect x="144" y="300" width="168" height="28" rx="14" fill="#cbd5e1" />
  <path
    d="M344 150c-11.046 0-20 8.954-20 20v44c0 11.046 8.954 20 20 20h44c11.046 0 20-8.954 20-20v-44c0-11.046-8.954-20-20-20h-44Zm31.215 59.289a12 12 0 0 1-16.971 0l-10.973-10.973a12 12 0 0 1 16.971-16.971l2.488 2.488 18.73-18.73a12 12 0 0 1 16.971 16.971l-27.216 27.215Z"
    fill="#4f46e5"
  />
</svg>
